<svg width="768" height="512" viewBox="0 0 768 512" fill="none" xmlns="http://www.w3.org/2000/svg">
  <defs>
    <linearGradient id="bg" x1="0" y1="0" x2="768" y2="512" gradientUnits="userSpaceOnUse">
      <stop offset="0%" stop-color="#0a0a0f"/>
      <stop offset="100%" stop-color="#0f0f1a"/>
    </linearGradient>
    <linearGradient id="accent" x1="0" y1="512" x2="768" y2="0" gradientUnits="userSpaceOnUse">
      <stop offset="0%" stop-color="#00f0ff"/>
      <stop offset="100%" stop-color="#b44aff"/>
    </linearGradient>
  </defs>
  <!-- BG -->
  <rect width="768" height="512" rx="48" fill="url(#bg)"/>
  <rect x="1" y="1" width="766" height="510" rx="47" stroke="url(#accent)" stroke-width="2" stroke-opacity="0.15" fill="none"/>

  <!-- Big Doge hero mascot — left side -->
  <g transform="translate(40, 60) scale(4.2)">
    <ellipse cx="24" cy="26" rx="16" ry="18" fill="#fbbf24"/>
    <ellipse cx="24" cy="30" rx="10" ry="10" fill="#fde68a"/>
    <ellipse cx="12" cy="12" rx="5" ry="8" fill="#f59e0b" transform="rotate(-15 12 12)"/>
    <ellipse cx="36" cy="12" rx="5" ry="8" fill="#f59e0b" transform="rotate(15 36 12)"/>
    <circle cx="18" cy="24" r="3" fill="#1e1e2e"/>
    <circle cx="30" cy="24" r="3" fill="#1e1e2e"/>
    <circle cx="19" cy="23" r="1" fill="white"/>
    <circle cx="31" cy="23" r="1" fill="white"/>
    <ellipse cx="24" cy="30" rx="3" ry="2" fill="#1e1e2e"/>
    <path d="M21 33 Q24 36 27 33" stroke="#1e1e2e" stroke-width="1.5" fill="none"/>
    <path d="M15 20 L21 19" stroke="#d97706" stroke-width="1.5"/>
    <path d="M27 19 L33 20" stroke="#d97706" stroke-width="1.5"/>
  </g>

  <!-- Chart line — right side, sweeping upward -->
  <path d="M280 420 L360 380 L440 395 L520 310 L600 260 L680 200 L740 160" stroke="url(#accent)" stroke-width="12" stroke-linecap="round" stroke-linejoin="round" fill="none" opacity="0.7"/>
  <!-- Glow fill -->
  <path d="M280 420 L360 380 L440 395 L520 310 L600 260 L680 200 L740 160 L740 420 Z" fill="url(#accent)" opacity="0.05"/>

  <!-- Small faces along the chart line -->
  <!-- Pepe -->
  <g transform="translate(330, 348) scale(0.65)">
    <ellipse cx="24" cy="24" rx="18" ry="16" fill="#22c55e"/>
    <ellipse cx="16" cy="18" rx="7" ry="8" fill="white"/>
    <ellipse cx="32" cy="18" rx="7" ry="8" fill="white"/>
    <circle cx="18" cy="20" r="3" fill="#1e1e2e"/>
    <circle cx="34" cy="20" r="3" fill="#1e1e2e"/>
  </g>
  <!-- Batman -->
  <g transform="translate(412, 363) scale(0.55)">
    <path d="M24 8 C20 8 12 14 4 22 C8 20 12 20 14 22 C14 26 16 30 20 32 L20 38 L18 42 L22 40 L24 44 L26 40 L30 42 L28 38 L28 32 C32 30 34 26 34 22 C36 20 40 20 44 22 C36 14 28 8 24 8Z" fill="#a855f7"/>
    <circle cx="20" cy="20" r="2" fill="#e0e7ff"/>
    <circle cx="28" cy="20" r="2" fill="#e0e7ff"/>
  </g>
  <!-- Flappy -->
  <g transform="translate(492, 278) scale(0.65)">
    <rect x="12" y="14" width="22" height="18" rx="4" fill="#fbbf24"/>
    <rect x="6" y="18" width="12" height="10" rx="3" fill="#22c55e"/>
    <circle cx="30" cy="20" r="5" fill="white"/>
    <circle cx="32" cy="20" r="3" fill="#1e1e2e"/>
    <rect x="34" y="22" width="10" height="4" rx="1" fill="#f97316"/>
  </g>
  <!-- Chad -->
  <g transform="translate(572, 228) scale(0.6)">
    <path d="M14 10 L34 10 L38 18 L36 34 L30 42 L18 42 L12 34 L10 18 Z" fill="#f59e0b"/>
    <path d="M14 10 L34 10 L36 6 L32 8 L28 4 L24 8 L20 4 L16 8 L12 6 Z" fill="#1e1e2e"/>
    <rect x="16" y="18" width="6" height="3" rx="1" fill="#1e1e2e"/>
    <rect x="26" y="18" width="6" height="3" rx="1" fill="#1e1e2e"/>
  </g>
  <!-- Capybara -->
  <g transform="translate(655, 168) scale(0.6)">
    <ellipse cx="24" cy="22" rx="14" ry="12" fill="#ca8a04"/>
    <ellipse cx="24" cy="26" rx="3" ry="2" fill="#1e1e2e"/>
    <path d="M17 20 Q19 18 21 20" stroke="#1e1e2e" stroke-width="2" fill="none"/>
    <path d="M27 20 Q29 18 31 20" stroke="#1e1e2e" stroke-width="2" fill="none"/>
  </g>
  <!-- Nyan Cat — bottom right -->
  <g transform="translate(620, 420) scale(0.9)">
    <rect x="2" y="10" width="20" height="3" rx="1" fill="#ff0000"/>
    <rect x="2" y="14" width="20" height="3" rx="1" fill="#ff8800"/>
    <rect x="2" y="18" width="20" height="3" rx="1" fill="#ffff00"/>
    <rect x="2" y="22" width="20" height="3" rx="1" fill="#00ff88"/>
    <rect x="2" y="26" width="20" height="3" rx="1" fill="#00ccff"/>
    <rect x="2" y="30" width="20" height="3" rx="1" fill="#cc66ff"/>
    <rect x="18" y="10" width="24" height="26" rx="4" fill="#f472b6"/>
    <rect x="22" y="14" width="16" height="18" rx="2" fill="#fbbf24"/>
    <circle cx="28" cy="38" r="1.5" fill="#1e1e2e"/>
    <circle cx="34" cy="38" r="1.5" fill="#1e1e2e"/>
  </g>

  <!-- "2036" bottom center -->
  <text x="384" y="490" text-anchor="middle" fill="url(#accent)" font-family="monospace" font-weight="bold" font-size="32" opacity="0.4">2036</text>
</svg>
